<?xml version="1.0" encoding="utf-8"?>
<!-- Generator: Adobe Illustrator 26.5.0, SVG Export Plug-In . SVG Version: 6.00 Build 0)  -->
<svg version="1.1" id="Laag_1" xmlns="http://www.w3.org/2000/svg" xmlns:xlink="http://www.w3.org/1999/xlink" x="0px" y="0px"
	 viewBox="0 0 1000 361.41" style="enable-background:new 0 0 1000 361.41;" xml:space="preserve">
<style type="text/css">
	.st0{fill:none;}
	.st1{fill:#3A0F49;}
	.st2{fill:#E54160;}
	.st3{fill:#89C8CE;}
</style>
<g>
	<rect class="st0" width="1000" height="361.41"/>
	<g>
		<g>
			<polygon class="st1" points="400.32,163.25 344.3,163.25 344.3,91.35 400,91.35 400,106.59 362.01,106.59 362.01,120.11 
				396.89,120.11 396.89,134.49 362.01,134.49 362.01,148.02 400.32,148.02 			"/>
			<polygon class="st1" points="467.6,163.25 447.85,163.25 437.55,147.69 427.14,163.25 407.5,163.25 425.21,137.18 407.5,109.28 
				427.14,109.28 437.55,126.02 447.85,109.28 467.6,109.28 449.78,137.18 			"/>
			<path class="st1" d="M519.52,136.32c0-8.26-5.47-13.95-12.98-13.95c-6.98,0-13.2,5.69-13.2,13.95c0,8.37,6.22,13.95,13.2,13.95
				C514.05,150.27,519.52,144.69,519.52,136.32 M536.37,136.32c0,17.06-12.02,28.55-26.29,28.55c-6.98,0-12.56-2.15-16.74-5.9v22.54
				h-17.17v-72.12h17.17v4.29c4.18-3.76,9.77-5.9,16.74-5.9C524.35,107.77,536.37,119.36,536.37,136.32"/>
			<path class="st1" d="M558.89,130.2h22.22c-1.61-5.79-5.9-8.48-10.84-8.48C565.44,121.72,560.5,124.73,558.89,130.2
				 M598.06,140.72h-39.49c1.39,6.44,5.79,10.41,11.59,10.41c3.97,0,8.58-0.97,11.48-6.22l15.24,3.11
				c-4.61,11.37-14.38,16.85-26.72,16.85c-15.56,0-28.44-11.48-28.44-28.54c0-16.96,12.88-28.55,28.55-28.55
				c15.24,0,27.47,10.95,27.79,28.55V140.72z"/>
			<path class="st1" d="M646.56,109.06l-0.75,17.17h-3.11c-12.02,0-18.57,6.22-18.57,20.18v16.85h-17.17v-53.87h17.17v10.3
				c3.86-6.44,9.77-11.05,18.57-11.05C644.19,108.63,645.27,108.74,646.56,109.06"/>
			<path class="st1" d="M654.7,109.38h17.17v53.87H654.7V109.38z M673.27,93.5c0,5.47-4.18,9.55-9.98,9.55
				c-5.8,0-9.87-4.08-9.87-9.55c0-5.26,4.08-9.77,9.87-9.77C669.08,83.73,673.27,88.24,673.27,93.5"/>
			<path class="st1" d="M698.8,130.2h22.22c-1.61-5.79-5.9-8.48-10.84-8.48C705.35,121.72,700.41,124.73,698.8,130.2 M737.97,140.72
				h-39.49c1.39,6.44,5.79,10.41,11.59,10.41c3.97,0,8.58-0.97,11.48-6.22l15.24,3.11c-4.62,11.37-14.38,16.85-26.72,16.85
				c-15.56,0-28.44-11.48-28.44-28.54c0-16.96,12.88-28.55,28.55-28.55c15.24,0,27.47,10.95,27.79,28.55V140.72z"/>
			<path class="st1" d="M801.49,130.2v33.05h-17.06v-29.4c0-6.33-3.76-10.62-9.23-10.62c-6.76,0-11.16,4.62-11.16,15.03v25h-17.17
				v-53.87h17.17v5.15c4.08-4.29,9.77-6.76,16.53-6.76C793.12,107.77,801.49,116.68,801.49,130.2"/>
			<path class="st1" d="M850.73,140.4l15.77,3.43c-2.68,12.77-14.06,21.03-27.47,21.03c-16.1,0-29.4-11.48-29.4-28.55
				c0-16.96,13.3-28.55,29.4-28.55c13.09,0,24.47,8.05,27.47,20.71l-16.1,3.87c-1.5-6.55-5.9-9.55-11.37-9.55
				c-7.73,0-12.88,5.69-12.88,13.52c0,7.94,5.15,13.52,12.88,13.52C844.51,149.84,848.91,146.94,850.73,140.4"/>
			<path class="st1" d="M889.03,130.2h22.22c-1.61-5.79-5.9-8.48-10.84-8.48C895.58,121.72,890.64,124.73,889.03,130.2
				 M928.2,140.72h-39.49c1.39,6.44,5.8,10.41,11.59,10.41c3.97,0,8.58-0.97,11.48-6.22l15.24,3.11
				c-4.62,11.37-14.38,16.85-26.72,16.85c-15.56,0-28.44-11.48-28.44-28.54c0-16.96,12.88-28.55,28.55-28.55
				c15.24,0,27.47,10.95,27.79,28.55V140.72z"/>
			<path class="st1" d="M416.31,243.61c-3.33,18.03-17.81,28.55-36.27,28.55c-21.36,0-38.2-16.42-38.2-37.56
				c0-21.03,16.85-37.56,38.2-37.56c17.71,0,32.73,10.52,36.16,27.58l-17.38,4.08c-2.25-10.41-9.55-15.45-18.78-15.45
				c-11.38,0-20.5,9.12-20.5,21.35c0,12.23,9.12,21.46,20.5,21.46c9.12,0,16.42-5.15,18.89-15.88L416.31,243.61z"/>
			<path class="st1" d="M439.9,237.49h22.22c-1.61-5.79-5.9-8.48-10.84-8.48C446.45,229.02,441.52,232.02,439.9,237.49
				 M479.07,248.01h-39.49c1.4,6.44,5.79,10.41,11.59,10.41c3.97,0,8.59-0.97,11.48-6.23l15.24,3.11
				c-4.61,11.38-14.38,16.85-26.72,16.85c-15.56,0-28.44-11.48-28.44-28.55c0-16.96,12.88-28.55,28.55-28.55
				c15.24,0,27.47,10.95,27.79,28.55V248.01z"/>
			<path class="st1" d="M542.59,237.49v33.05h-17.06v-29.4c0-6.33-3.75-10.62-9.23-10.62c-6.76,0-11.16,4.62-11.16,15.03v25h-17.17
				v-53.87h17.17v5.15c4.08-4.29,9.77-6.76,16.52-6.76C534.22,215.07,542.59,223.98,542.59,237.49"/>
			<path class="st1" d="M594.2,268.19c-4.18,2.25-8.59,3.97-14.7,3.97c-13.41,0-21.46-7.3-21.46-21.46v-20.39h-9.77v-13.63h9.77
				v-15.88h17.17v15.88h15.88v13.63H575.2v18.67c0,5.58,2.68,7.83,7.19,7.83c2.36,0,5.58-0.86,7.83-2.15L594.2,268.19z"/>
			<path class="st1" d="M613.29,237.49h22.22c-1.61-5.79-5.9-8.48-10.84-8.48C619.84,229.02,614.9,232.02,613.29,237.49
				 M652.46,248.01h-39.49c1.39,6.44,5.79,10.41,11.59,10.41c3.97,0,8.58-0.97,11.48-6.23l15.24,3.11
				c-4.61,11.38-14.38,16.85-26.72,16.85c-15.56,0-28.44-11.48-28.44-28.55c0-16.96,12.88-28.55,28.54-28.55
				c15.24,0,27.47,10.95,27.79,28.55V248.01z"/>
			<path class="st1" d="M700.95,216.36l-0.75,17.17h-3.11c-12.02,0-18.56,6.23-18.56,20.18v16.85h-17.17v-53.87h17.17v10.3
				c3.86-6.44,9.77-11.06,18.56-11.06C698.59,215.92,699.66,216.03,700.95,216.36"/>
		</g>
		<g>
			<path class="st2" d="M205.35,91.42c-16.52,0-33.04,6.29-45.61,18.86c-12.19,12.18-18.89,28.38-18.89,45.61
				c0,17.23,6.71,33.43,18.89,45.61c25.16,25.16,66.08,25.14,91.22,0c25.15-25.15,25.15-66.07,0-91.22
				C238.38,97.71,221.86,91.42,205.35,91.42 M205.35,239.89c-21.51,0-43.03-8.19-59.42-24.57c-15.87-15.87-24.62-36.97-24.62-59.42
				c0-22.44,8.74-43.55,24.62-59.42c32.76-32.77,86.08-32.76,118.84,0c32.76,32.77,32.76,86.07,0,118.84
				C248.39,231.69,226.87,239.89,205.35,239.89"/>
			<path class="st3" d="M91.43,269.98h79.75v-79.75H91.43V269.98z M190.71,289.51H71.9V170.7h118.81V289.51z"/>
			<path class="st1" d="M99.32,170.84l22.33-22.33c1.73-19.6,10.18-37.79,24.26-51.87L71.8,170.74l0.1,0.1v-0.01H99.32z"/>
			<path class="st1" d="M264.77,215.46C264.77,215.46,264.77,215.46,264.77,215.46c-14.46,14.46-32.92,22.53-51.85,24.23
				l-22.21,22.21v27.62L264.77,215.46L264.77,215.46z"/>
		</g>
	</g>
</g>
</svg>
